<mxfile host="Electron" modified="2023-05-16T09:42:08.754Z" agent="Mozilla/5.0 (Macintosh; Intel Mac OS X 10_15_7) AppleWebKit/537.36 (KHTML, like Gecko) draw.io/21.2.8 Chrome/112.0.5615.165 Electron/24.2.0 Safari/537.36" etag="d8Ox9eSC5bw1kWtNZ4NP" version="21.2.8" type="device">
  <diagram id="g1CnJB_Rr_9FsxK_g9BP" name="Page-1">
    <mxGraphModel dx="2575" dy="1314" grid="1" gridSize="10" guides="1" tooltips="1" connect="1" arrows="1" fold="1" page="1" pageScale="1" pageWidth="4681" pageHeight="3300" math="0" shadow="0">
      <root>
        <mxCell id="0" />
        <mxCell id="1" parent="0" />
        <mxCell id="GoGUJSBJ-pz_oauITj-g-151" value="" style="group" parent="1" vertex="1" connectable="0">
          <mxGeometry x="180" y="270" width="290" height="230" as="geometry" />
        </mxCell>
        <mxCell id="GoGUJSBJ-pz_oauITj-g-152" value="" style="endArrow=none;html=1;rounded=0;exitX=0.5;exitY=1;exitDx=0;exitDy=0;entryX=0.5;entryY=0;entryDx=0;entryDy=0;" parent="GoGUJSBJ-pz_oauITj-g-151" source="GoGUJSBJ-pz_oauITj-g-153" target="GoGUJSBJ-pz_oauITj-g-153" edge="1">
          <mxGeometry width="50" height="50" relative="1" as="geometry">
            <mxPoint x="195" y="140" as="sourcePoint" />
            <mxPoint x="190" y="30" as="targetPoint" />
          </mxGeometry>
        </mxCell>
        <mxCell id="GoGUJSBJ-pz_oauITj-g-153" value="WGS" style="swimlane;" parent="GoGUJSBJ-pz_oauITj-g-151" vertex="1">
          <mxGeometry width="290" height="230" as="geometry">
            <mxRectangle x="430" y="340" width="130" height="23" as="alternateBounds" />
          </mxGeometry>
        </mxCell>
        <mxCell id="GoGUJSBJ-pz_oauITj-g-154" value="convert_wgs2xy" style="text;html=1;align=center;verticalAlign=middle;resizable=0;points=[];autosize=1;strokeColor=none;fillColor=none;" parent="GoGUJSBJ-pz_oauITj-g-153" vertex="1">
          <mxGeometry x="20" y="35" width="110" height="30" as="geometry" />
        </mxCell>
        <mxCell id="GoGUJSBJ-pz_oauITj-g-156" value="convert_xy2wgs" style="text;html=1;align=center;verticalAlign=middle;resizable=0;points=[];autosize=1;strokeColor=none;fillColor=none;" parent="GoGUJSBJ-pz_oauITj-g-153" vertex="1">
          <mxGeometry x="20" y="55" width="110" height="30" as="geometry" />
        </mxCell>
        <mxCell id="GoGUJSBJ-pz_oauITj-g-161" value="" style="group" parent="1" vertex="1" connectable="0">
          <mxGeometry x="500" y="270" width="290" height="230" as="geometry" />
        </mxCell>
        <mxCell id="GoGUJSBJ-pz_oauITj-g-162" value="" style="endArrow=none;html=1;rounded=0;exitX=0.5;exitY=1;exitDx=0;exitDy=0;entryX=0.5;entryY=0;entryDx=0;entryDy=0;" parent="GoGUJSBJ-pz_oauITj-g-161" source="GoGUJSBJ-pz_oauITj-g-163" target="GoGUJSBJ-pz_oauITj-g-163" edge="1">
          <mxGeometry width="50" height="50" relative="1" as="geometry">
            <mxPoint x="195" y="140" as="sourcePoint" />
            <mxPoint x="190" y="30" as="targetPoint" />
          </mxGeometry>
        </mxCell>
        <mxCell id="GoGUJSBJ-pz_oauITj-g-163" value="Field" style="swimlane;" parent="GoGUJSBJ-pz_oauITj-g-161" vertex="1">
          <mxGeometry width="290" height="230" as="geometry">
            <mxRectangle x="430" y="340" width="130" height="23" as="alternateBounds" />
          </mxGeometry>
        </mxCell>
        <mxCell id="GoGUJSBJ-pz_oauITj-g-164" value="check path" style="text;html=1;align=center;verticalAlign=middle;resizable=0;points=[];autosize=1;strokeColor=none;fillColor=none;" parent="GoGUJSBJ-pz_oauITj-g-163" vertex="1">
          <mxGeometry x="35" y="45" width="80" height="30" as="geometry" />
        </mxCell>
        <mxCell id="5q5izvouD-AY6alJIMGp-1" value="find closet legal point" style="text;html=1;align=center;verticalAlign=middle;resizable=0;points=[];autosize=1;strokeColor=none;fillColor=none;" vertex="1" parent="GoGUJSBJ-pz_oauITj-g-163">
          <mxGeometry x="5" y="70" width="140" height="30" as="geometry" />
        </mxCell>
        <mxCell id="5q5izvouD-AY6alJIMGp-2" value="check position legal" style="text;html=1;align=center;verticalAlign=middle;resizable=0;points=[];autosize=1;strokeColor=none;fillColor=none;" vertex="1" parent="GoGUJSBJ-pz_oauITj-g-163">
          <mxGeometry x="10" y="100" width="130" height="30" as="geometry" />
        </mxCell>
        <mxCell id="5q5izvouD-AY6alJIMGp-3" value="polygon_border.csv" style="text;html=1;align=center;verticalAlign=middle;resizable=0;points=[];autosize=1;strokeColor=none;fillColor=none;" vertex="1" parent="GoGUJSBJ-pz_oauITj-g-163">
          <mxGeometry x="145" y="45" width="130" height="30" as="geometry" />
        </mxCell>
        <mxCell id="5q5izvouD-AY6alJIMGp-4" value="polygon_obstacle.csv" style="text;html=1;align=center;verticalAlign=middle;resizable=0;points=[];autosize=1;strokeColor=none;fillColor=none;" vertex="1" parent="GoGUJSBJ-pz_oauITj-g-163">
          <mxGeometry x="140" y="70" width="140" height="30" as="geometry" />
        </mxCell>
        <mxCell id="5q5izvouD-AY6alJIMGp-13" value="WGS" style="text;html=1;align=center;verticalAlign=middle;resizable=0;points=[];autosize=1;strokeColor=none;fillColor=none;" vertex="1" parent="GoGUJSBJ-pz_oauITj-g-163">
          <mxGeometry x="190" y="90" width="50" height="30" as="geometry" />
        </mxCell>
        <mxCell id="GoGUJSBJ-pz_oauITj-g-168" value="" style="group" parent="1" vertex="1" connectable="0">
          <mxGeometry x="810" y="270" width="290" height="230" as="geometry" />
        </mxCell>
        <mxCell id="GoGUJSBJ-pz_oauITj-g-169" value="" style="endArrow=none;html=1;rounded=0;exitX=0.5;exitY=1;exitDx=0;exitDy=0;entryX=0.5;entryY=0;entryDx=0;entryDy=0;" parent="GoGUJSBJ-pz_oauITj-g-168" source="GoGUJSBJ-pz_oauITj-g-170" target="GoGUJSBJ-pz_oauITj-g-170" edge="1">
          <mxGeometry width="50" height="50" relative="1" as="geometry">
            <mxPoint x="195" y="140" as="sourcePoint" />
            <mxPoint x="190" y="30" as="targetPoint" />
          </mxGeometry>
        </mxCell>
        <mxCell id="GoGUJSBJ-pz_oauITj-g-170" value="Prior" style="swimlane;" parent="GoGUJSBJ-pz_oauITj-g-168" vertex="1">
          <mxGeometry width="290" height="230" as="geometry">
            <mxRectangle x="430" y="340" width="130" height="23" as="alternateBounds" />
          </mxGeometry>
        </mxCell>
        <mxCell id="GoGUJSBJ-pz_oauITj-g-171" value="create prior" style="text;html=1;align=center;verticalAlign=middle;resizable=0;points=[];autosize=1;strokeColor=none;fillColor=none;" parent="GoGUJSBJ-pz_oauITj-g-170" vertex="1">
          <mxGeometry x="35" y="35" width="80" height="30" as="geometry" />
        </mxCell>
        <mxCell id="GoGUJSBJ-pz_oauITj-g-175" value="sinmod.nc" style="text;html=1;align=center;verticalAlign=middle;resizable=0;points=[];autosize=1;strokeColor=none;fillColor=none;" parent="GoGUJSBJ-pz_oauITj-g-170" vertex="1">
          <mxGeometry x="175" y="40" width="80" height="30" as="geometry" />
        </mxCell>
        <mxCell id="5q5izvouD-AY6alJIMGp-14" value="WGS" style="text;html=1;align=center;verticalAlign=middle;resizable=0;points=[];autosize=1;strokeColor=none;fillColor=none;" vertex="1" parent="GoGUJSBJ-pz_oauITj-g-170">
          <mxGeometry x="190" y="70" width="50" height="30" as="geometry" />
        </mxCell>
        <mxCell id="GoGUJSBJ-pz_oauITj-g-180" value="" style="group" parent="1" vertex="1" connectable="0">
          <mxGeometry x="1120" y="270" width="290" height="230" as="geometry" />
        </mxCell>
        <mxCell id="GoGUJSBJ-pz_oauITj-g-181" value="" style="endArrow=none;html=1;rounded=0;exitX=0.5;exitY=1;exitDx=0;exitDy=0;entryX=0.5;entryY=0;entryDx=0;entryDy=0;" parent="GoGUJSBJ-pz_oauITj-g-180" source="GoGUJSBJ-pz_oauITj-g-182" target="GoGUJSBJ-pz_oauITj-g-182" edge="1">
          <mxGeometry width="50" height="50" relative="1" as="geometry">
            <mxPoint x="195" y="140" as="sourcePoint" />
            <mxPoint x="190" y="30" as="targetPoint" />
          </mxGeometry>
        </mxCell>
        <mxCell id="GoGUJSBJ-pz_oauITj-g-182" value="Analyzer" style="swimlane;" parent="GoGUJSBJ-pz_oauITj-g-180" vertex="1">
          <mxGeometry width="290" height="230" as="geometry">
            <mxRectangle x="430" y="340" width="130" height="23" as="alternateBounds" />
          </mxGeometry>
        </mxCell>
        <mxCell id="GoGUJSBJ-pz_oauITj-g-183" value="assimate data" style="text;html=1;align=center;verticalAlign=middle;resizable=0;points=[];autosize=1;strokeColor=none;fillColor=none;" parent="GoGUJSBJ-pz_oauITj-g-182" vertex="1">
          <mxGeometry x="25" y="35" width="100" height="30" as="geometry" />
        </mxCell>
        <mxCell id="GoGUJSBJ-pz_oauITj-g-184" value="{ropr" style="text;html=1;align=center;verticalAlign=middle;resizable=0;points=[];autosize=1;strokeColor=none;fillColor=none;" parent="GoGUJSBJ-pz_oauITj-g-182" vertex="1">
          <mxGeometry x="190" y="45" width="50" height="30" as="geometry" />
        </mxCell>
        <mxCell id="GoGUJSBJ-pz_oauITj-g-238" value="predict data on path" style="text;html=1;align=center;verticalAlign=middle;resizable=0;points=[];autosize=1;strokeColor=none;fillColor=none;" parent="GoGUJSBJ-pz_oauITj-g-182" vertex="1">
          <mxGeometry x="10" y="55" width="130" height="30" as="geometry" />
        </mxCell>
        <mxCell id="GoGUJSBJ-pz_oauITj-g-239" value="" style="group" parent="1" vertex="1" connectable="0">
          <mxGeometry x="260" y="530" width="200" height="230" as="geometry" />
        </mxCell>
        <mxCell id="GoGUJSBJ-pz_oauITj-g-240" value="" style="endArrow=none;html=1;rounded=0;exitX=0.5;exitY=1;exitDx=0;exitDy=0;entryX=0.5;entryY=0;entryDx=0;entryDy=0;" parent="GoGUJSBJ-pz_oauITj-g-239" source="GoGUJSBJ-pz_oauITj-g-241" target="GoGUJSBJ-pz_oauITj-g-241" edge="1">
          <mxGeometry width="50" height="50" relative="1" as="geometry">
            <mxPoint x="105" y="140" as="sourcePoint" />
            <mxPoint x="100" y="30" as="targetPoint" />
          </mxGeometry>
        </mxCell>
        <mxCell id="GoGUJSBJ-pz_oauITj-g-241" value="Planner" style="swimlane;" parent="GoGUJSBJ-pz_oauITj-g-239" vertex="1">
          <mxGeometry x="-90" width="290" height="230" as="geometry">
            <mxRectangle x="430" y="340" width="130" height="23" as="alternateBounds" />
          </mxGeometry>
        </mxCell>
        <mxCell id="GoGUJSBJ-pz_oauITj-g-242" value="select path&amp;nbsp;" style="text;html=1;align=center;verticalAlign=middle;resizable=0;points=[];autosize=1;strokeColor=none;fillColor=none;" parent="GoGUJSBJ-pz_oauITj-g-241" vertex="1">
          <mxGeometry x="25" y="35" width="80" height="30" as="geometry" />
        </mxCell>
        <mxCell id="GoGUJSBJ-pz_oauITj-g-243" value="Analyzer" style="text;html=1;align=center;verticalAlign=middle;resizable=0;points=[];autosize=1;strokeColor=none;fillColor=none;" parent="GoGUJSBJ-pz_oauITj-g-241" vertex="1">
          <mxGeometry x="180" y="45" width="70" height="30" as="geometry" />
        </mxCell>
        <mxCell id="5q5izvouD-AY6alJIMGp-5" value="" style="group" vertex="1" connectable="0" parent="1">
          <mxGeometry x="580" y="530" width="200" height="230" as="geometry" />
        </mxCell>
        <mxCell id="5q5izvouD-AY6alJIMGp-6" value="" style="endArrow=none;html=1;rounded=0;exitX=0.5;exitY=1;exitDx=0;exitDy=0;entryX=0.5;entryY=0;entryDx=0;entryDy=0;" edge="1" parent="5q5izvouD-AY6alJIMGp-5" source="5q5izvouD-AY6alJIMGp-7" target="5q5izvouD-AY6alJIMGp-7">
          <mxGeometry width="50" height="50" relative="1" as="geometry">
            <mxPoint x="105" y="140" as="sourcePoint" />
            <mxPoint x="100" y="30" as="targetPoint" />
          </mxGeometry>
        </mxCell>
        <mxCell id="5q5izvouD-AY6alJIMGp-7" value="Agent" style="swimlane;" vertex="1" parent="5q5izvouD-AY6alJIMGp-5">
          <mxGeometry x="-90" width="290" height="230" as="geometry">
            <mxRectangle x="430" y="340" width="130" height="23" as="alternateBounds" />
          </mxGeometry>
        </mxCell>
        <mxCell id="5q5izvouD-AY6alJIMGp-8" value="launch the mission" style="text;html=1;align=center;verticalAlign=middle;resizable=0;points=[];autosize=1;strokeColor=none;fillColor=none;" vertex="1" parent="5q5izvouD-AY6alJIMGp-7">
          <mxGeometry x="5" y="35" width="120" height="30" as="geometry" />
        </mxCell>
        <mxCell id="5q5izvouD-AY6alJIMGp-9" value="Planner" style="text;html=1;align=center;verticalAlign=middle;resizable=0;points=[];autosize=1;strokeColor=none;fillColor=none;" vertex="1" parent="5q5izvouD-AY6alJIMGp-7">
          <mxGeometry x="185" y="45" width="60" height="30" as="geometry" />
        </mxCell>
        <mxCell id="5q5izvouD-AY6alJIMGp-11" value="Analyzer" style="text;html=1;align=center;verticalAlign=middle;resizable=0;points=[];autosize=1;strokeColor=none;fillColor=none;" vertex="1" parent="5q5izvouD-AY6alJIMGp-7">
          <mxGeometry x="180" y="65" width="70" height="30" as="geometry" />
        </mxCell>
        <mxCell id="5q5izvouD-AY6alJIMGp-12" value="WGS" style="text;html=1;align=center;verticalAlign=middle;resizable=0;points=[];autosize=1;strokeColor=none;fillColor=none;" vertex="1" parent="5q5izvouD-AY6alJIMGp-7">
          <mxGeometry x="195" y="90" width="50" height="30" as="geometry" />
        </mxCell>
      </root>
    </mxGraphModel>
  </diagram>
</mxfile>
